<svg width="485" height="454" viewBox="0 0 485 454" fill="none" xmlns="http://www.w3.org/2000/svg">
<path d="M384.855 298.192H384.014V297.371H384.855V298.192ZM384.855 291.058H384.014V284.745H384.855V291.058ZM384.855 278.431H384.014V272.118H384.855V278.431ZM384.855 265.805H384.014V259.492H384.855V265.805ZM384.855 253.178H384.014V246.865H384.855V253.178ZM384.855 240.552H384.014V234.239H384.855V240.552ZM384.855 227.926H384.014V221.612H384.855V227.926ZM384.855 215.299H384.014V208.986H384.855V215.299ZM384.855 202.673H384.014V196.359H384.855V202.673ZM384.855 190.046H384.014V183.733H384.855V190.046ZM384.855 177.42H384.014V171.107H384.855V177.42ZM384.855 164.793H384.014V158.48H384.855V164.793ZM384.855 152.167H384.014V145.854H384.855V152.167ZM384.855 139.541H384.014V133.227H384.855V139.541ZM384.855 126.914H384.014V120.601H384.855V126.914ZM379.135 120.008H372.821V119.166H379.135V120.008ZM366.508 120.008H360.195V119.166H366.508V120.008ZM353.882 120.008H347.569V119.166H353.882V120.008ZM341.255 120.008H334.942V119.166H341.255V120.008ZM328.629 120.008H322.316V119.166H328.629V120.008ZM316.002 120.008H309.689V119.166H316.002V120.008ZM303.376 120.008H297.063V119.166H303.376V120.008ZM290.75 120.008H284.436V119.166H290.75V120.008ZM278.123 120.008H271.81V119.166H278.123V120.008ZM265.497 120.008H259.184V119.166H265.497V120.008ZM252.87 120.008H246.557V119.166H252.87V120.008Z" fill="white"/>
<path d="M401.045 143.687C383.548 143.687 369.312 129.452 369.312 111.955C369.312 94.4577 383.548 80.2227 401.045 80.2227C418.542 80.2227 432.777 94.4577 432.777 111.955C432.777 129.452 418.542 143.687 401.045 143.687ZM401.045 80.886C383.913 80.886 369.976 94.8233 369.976 111.955C369.976 129.086 383.913 143.024 401.045 143.024C418.176 143.024 432.114 129.086 432.114 111.955C432.114 94.8233 418.176 80.886 401.045 80.886Z" fill="#7CCF00"/>
<path d="M386.66 153.021C405.817 153.021 421.347 137.492 421.347 118.335C421.347 99.1776 405.817 83.6478 386.66 83.6478C367.503 83.6478 351.974 99.1776 351.974 118.335C351.974 137.492 367.503 153.021 386.66 153.021Z" fill="#7CCF00"/>
<path d="M397.066 128.511L386.281 118.382L400 96.7483L400.496 97.0631L387.037 118.287L397.468 128.082L397.066 128.511Z" fill="white"/>
<path d="M384.781 203.707L396.19 192.299H373.373L384.781 203.707Z" fill="#FF2056"/>
<path d="M210.08 354.028H205.461V353.187H210.08V354.028ZM199.148 354.028H192.834V353.187H199.148V354.028ZM186.521 354.028H180.208V353.187H186.521V354.028ZM173.895 354.028H167.582V353.187H173.895V354.028ZM161.268 354.028H154.955V353.187H161.268V354.028ZM148.642 354.028H142.329V353.187H148.642V354.028ZM136.016 354.028H129.702V353.187H136.016V354.028ZM123.389 354.028H117.076V353.187H123.389V354.028ZM110.763 354.028H104.449V353.187H110.763V354.028ZM98.1362 354.028H91.823V353.187H98.1362V354.028ZM85.5098 354.028H79.1966V353.187H85.5098V354.028ZM72.8834 354.028H66.5702V353.187H72.8834V354.028ZM60.2569 354.028H54.9258V352.205H55.7675V353.187H60.2569V354.028ZM55.7675 345.891H54.9258V339.578H55.7675V345.891ZM55.7675 333.265H54.9258V326.952H55.7675V333.265ZM55.7675 320.639H54.9258V314.325H55.7675V320.639ZM55.7675 308.012H54.9258V301.699H55.7675V308.012ZM55.7675 295.386H54.9258V289.073H55.7675V295.386ZM55.7675 282.759H54.9258V276.446H55.7675V282.759ZM55.7675 270.133H54.9258V263.82H55.7675V270.133ZM55.7675 257.506H54.9258V251.193H55.7675V257.506ZM55.7675 244.88H54.9258V238.567H55.7675V244.88ZM55.7675 232.254H54.9258V225.94H55.7675V232.254ZM55.7675 219.627H54.9258V213.314H55.7675V219.627ZM55.7675 207.001H54.9258V200.687H55.7675V207.001ZM55.7675 194.374H54.9258V188.061H55.7675V194.374Z" fill="white"/>
<path d="M78.5296 370.148H31.6089C28.0048 370.148 25.083 367.227 25.083 363.623V329.086H85.0558V363.623C85.0558 367.227 82.134 370.148 78.5296 370.148Z" fill="#B82247"/>
<path d="M25.083 329.086L55.0694 349.617L85.056 329.086H25.083Z" fill="#FF2056"/>
<path d="M55.091 268.058L66.4994 279.466H43.6826L55.091 268.058Z" fill="#FF2056"/>
<path d="M309.432 67.3217C306.493 67.3217 304.101 64.9303 304.101 61.9906C304.101 59.0509 306.493 56.6594 309.432 56.6594C312.372 56.6594 314.763 59.0509 314.763 61.9906C314.763 64.93 312.372 67.3217 309.432 67.3217ZM309.432 57.5012C306.957 57.5012 304.943 59.5152 304.943 61.9906C304.943 64.4659 306.957 66.48 309.432 66.48C311.908 66.48 313.922 64.4659 313.922 61.9906C313.922 59.5152 311.908 57.5012 309.432 57.5012Z" fill="white"/>
<path d="M110.416 420.439C107.476 420.439 105.084 418.047 105.084 415.108C105.084 412.168 107.476 409.777 110.416 409.777C113.355 409.777 115.747 412.168 115.747 415.108C115.747 418.047 113.355 420.439 110.416 420.439ZM110.416 410.618C107.94 410.618 105.926 412.632 105.926 415.108C105.926 417.583 107.94 419.597 110.416 419.597C112.891 419.597 114.905 417.583 114.905 415.108C114.905 412.632 112.891 410.618 110.416 410.618Z" fill="white"/>
<path d="M419.062 221.388L412.413 214.92L419.062 208.453L425.71 214.92L419.062 221.388ZM413.62 214.92L419.062 220.214L424.503 214.92L419.062 209.627L413.62 214.92Z" fill="white"/>
<path d="M153.297 234.149H114.639C114.289 234.149 114.004 233.864 114.004 233.514C114.004 233.163 114.289 232.879 114.639 232.879H153.297C153.648 232.879 153.932 233.163 153.932 233.514C153.932 233.864 153.648 234.149 153.297 234.149Z" fill="white"/>
<path d="M136.11 242.356C136.109 242.356 136.107 242.356 136.105 242.356L114.634 242.172C114.283 242.169 114.002 241.883 114.004 241.532C114.007 241.181 114.292 240.893 114.645 240.903L136.116 241.087C136.466 241.09 136.748 241.376 136.745 241.727C136.742 242.076 136.458 242.356 136.11 242.356Z" fill="white"/>
<path d="M153.297 250.196H114.639C114.289 250.196 114.004 249.912 114.004 249.561C114.004 249.211 114.289 248.926 114.639 248.926H153.297C153.648 248.926 153.932 249.211 153.932 249.561C153.932 249.912 153.648 250.196 153.297 250.196Z" fill="white"/>
<path d="M153.297 242.172H143.615C143.264 242.172 142.98 241.888 142.98 241.537C142.98 241.187 143.264 240.902 143.615 240.902H153.297C153.648 240.902 153.932 241.187 153.932 241.537C153.932 241.888 153.648 242.172 153.297 242.172Z" fill="white"/>
<path d="M338.624 171.914H304.43C304.1 171.914 303.833 171.647 303.833 171.317C303.833 170.987 304.1 170.72 304.43 170.72H338.624C338.954 170.72 339.222 170.987 339.222 171.317C339.222 171.647 338.954 171.914 338.624 171.914Z" fill="white"/>
<path d="M323.422 180.122C323.42 180.122 323.418 180.122 323.416 180.122L304.424 179.938C304.094 179.934 303.829 179.665 303.833 179.335C303.836 179.007 304.102 178.744 304.43 178.744C304.432 178.744 304.434 178.744 304.436 178.744L323.428 178.928C323.757 178.931 324.022 179.201 324.019 179.531C324.016 179.858 323.749 180.122 323.422 180.122Z" fill="white"/>
<path d="M338.625 179.938H330.06C329.731 179.938 329.463 179.67 329.463 179.341C329.463 179.011 329.731 178.744 330.06 178.744H338.625C338.954 178.744 339.222 179.011 339.222 179.341C339.222 179.67 338.954 179.938 338.625 179.938Z" fill="white"/>
<path d="M0.401367 194.469C0.401367 202.34 6.78248 208.721 14.6538 208.721H257.099C264.97 208.721 271.351 202.34 271.351 194.469V81.797H0.401367V194.469Z" fill="#262626"/>
<path d="M257.099 209.123H14.654C6.57388 209.123 0 202.549 0 194.468V81.3955H271.754V194.469C271.754 202.549 265.179 209.123 257.099 209.123ZM0.803041 82.1985V194.469C0.803041 202.106 7.01665 208.319 14.654 208.319H257.099C264.737 208.319 270.95 202.106 270.95 194.469V82.1985H0.803041Z" fill="white"/>
<path d="M257.099 47.5167H14.6538C6.78248 47.5167 0.401367 53.8978 0.401367 61.7692V81.7966H271.352V61.7692C271.352 53.8978 264.971 47.5167 257.099 47.5167Z" fill="#2D2D2F"/>
<path d="M271.703 82.1476H0.0507812V61.7694C0.0507812 53.7171 6.60165 47.1663 14.654 47.1663H257.099C265.151 47.1663 271.703 53.7171 271.703 61.7694V82.1476ZM0.75225 81.4462H271.001V61.7694C271.001 54.1041 264.764 47.8677 257.099 47.8677H14.654C6.98858 47.8677 0.75225 54.1041 0.75225 61.7694V81.4462Z" fill="white"/>
<path d="M23.2806 71.6081C19.4478 71.6081 16.3296 68.4899 16.3296 64.6571C16.3296 60.8243 19.4478 57.7058 23.2806 57.7058C27.1134 57.7058 30.2319 60.8243 30.2319 64.6571C30.2319 68.4899 27.1137 71.6081 23.2806 71.6081ZM23.2806 58.758C20.028 58.758 17.3818 61.4042 17.3818 64.6571C17.3818 67.9097 20.028 70.5559 23.2806 70.5559C26.5334 70.5559 29.1797 67.9097 29.1797 64.6571C29.1797 61.4042 26.5334 58.758 23.2806 58.758Z" fill="white"/>
<path d="M175.385 73.3407L143.187 70.4815L105.143 67.2208L104.412 57.3102L98.4929 66.6506L89.851 65.9116C85.8516 54.0974 89.4737 51.8084 95.3767 47.8089C101.28 43.8094 96.1396 36.1957 96.7097 30.0999C97.2799 24.0042 109.664 22.0925 112.708 17.5229C123.374 -10.6672 144.713 3.62063 144.713 3.62063C169.096 -1.14206 170.43 23.4259 177.095 31.8107C183.761 40.1955 175.569 44.7654 176.718 51.2386C186.813 67.0522 175.385 73.3407 175.385 73.3407Z" fill="#263238"/>
<path d="M149.652 44.0586H118.788V89.5721H149.652V44.0586Z" fill="#FFBA9A"/>
<path d="M149.652 59.7597V77.8783C137.846 77.0029 127.125 65.3013 123.149 55.0371L149.652 59.7597Z" fill="#FFBA9A"/>
<path d="M161.001 43.7854C161.29 48.4195 161.081 52.3949 160.398 55.728C158.712 63.92 154.134 68.1928 146.882 68.5542C135.059 69.1406 116.371 54.9331 116.371 38.3002C116.371 21.6672 133.598 8.88143 145.372 10.1904C167.056 12.5998 159.997 33.2162 160.752 40.7096C160.856 41.7615 160.945 42.7896 161.001 43.7854Z" fill="#FFBA9A"/>
<path d="M117.463 41.2475C126.812 39.4113 134.325 35.3896 138.746 21.9722C152.6 23.3777 161.312 26.8264 163.844 34.0192L163.041 12.1337L133.325 6.11035L112.845 22.5747L113.046 42.2514L117.463 41.2475Z" fill="#263238"/>
<path d="M144.487 43.0589C145.33 42.216 145.33 40.8492 144.487 40.0063C143.644 39.1633 142.277 39.1633 141.435 40.0063C140.592 40.8492 140.592 42.2159 141.435 43.0589C142.277 43.9019 143.644 43.9019 144.487 43.0589Z" fill="#013D55"/>
<path d="M156.348 40.8447C157.125 41.6214 157.125 42.8804 156.348 43.657C155.572 44.4337 154.313 44.4337 153.536 43.657C152.759 42.8804 152.759 41.6214 153.536 40.8447C154.313 40.068 155.572 40.068 156.348 40.8447Z" fill="#013D55"/>
<path d="M149.968 44.5793C150.623 45.0908 151.343 45.5864 151.991 46.2146C152.318 46.5277 152.63 46.8712 152.895 47.2977C153.029 47.5095 153.145 47.746 153.224 48.0157C153.297 48.2862 153.348 48.5898 153.295 48.9046C153.281 49.0603 153.225 49.2121 153.172 49.3572C153.102 49.4919 153.037 49.6375 152.945 49.7472L152.813 49.9206L152.667 50.0671C152.571 50.1695 152.468 50.2478 152.364 50.3255C152.262 50.4099 152.153 50.47 152.046 50.5314C151.939 50.5954 151.832 50.6549 151.723 50.7017C151.506 50.8089 151.29 50.8934 151.069 50.9647C150.194 51.2559 149.312 51.3704 148.428 51.3841C148.296 51.3861 148.187 51.2809 148.185 51.149C148.183 51.0472 148.246 50.959 148.335 50.9234L148.34 50.9217C149.144 50.6021 149.95 50.3302 150.676 49.9826C151.392 49.6504 152.069 49.1689 152.11 48.7247C152.139 48.6136 152.117 48.4801 152.086 48.3364C152.046 48.1916 151.979 48.0353 151.898 47.8745C151.734 47.5524 151.485 47.2331 151.234 46.9107C150.722 46.2634 150.107 45.6573 149.61 44.886C149.539 44.7757 149.571 44.629 149.681 44.5577C149.768 44.5016 149.879 44.5097 149.956 44.5701L149.968 44.5793Z" fill="#013D55"/>
<path d="M142.561 52.0228C145.238 58.448 149.388 58.8495 151.529 54.8338L142.561 52.0228Z" fill="white"/>
<path d="M145.24 33.7324C145.422 34.8017 142.555 35.5649 140.441 36.0458C138.327 36.5267 136.482 36.3373 136.319 35.623C136.157 34.9086 137.738 33.9397 139.852 33.4588C141.966 32.9779 145.118 33.0098 145.24 33.7324Z" fill="#013D55"/>
<path d="M151.033 34.2016C150.811 35.2605 152.972 35.8683 154.572 36.2361C156.172 36.604 157.615 36.327 157.795 35.6174C157.976 34.9081 156.826 34.0346 155.226 33.6671C153.626 33.2992 151.184 33.4861 151.033 34.2016Z" fill="#013D55"/>
<path opacity="0.4" d="M134.078 55.3023C137.488 55.3023 140.252 52.5381 140.252 49.1283C140.252 45.7184 137.488 42.9542 134.078 42.9542C130.668 42.9542 127.904 45.7184 127.904 49.1283C127.904 52.5381 130.668 55.3023 134.078 55.3023Z" fill="#FF9498"/>
<path opacity="0.4" d="M160.399 55.7279C157.885 54.949 156.062 52.6038 156.062 49.833C156.062 46.8453 158.182 44.3557 161.001 43.7855C161.29 48.4194 161.081 52.3951 160.399 55.7279Z" fill="#FF9498"/>
<path d="M123.611 48.5903C126.014 45.396 125.089 40.6448 121.545 37.9782C118 35.3115 113.179 35.7392 110.776 38.9335C108.372 42.1277 109.298 46.8789 112.842 49.5456C116.387 52.2122 121.208 51.7845 123.611 48.5903Z" fill="#FFBA9A"/>
<path d="M120.037 45.855C119.371 42.7158 116.124 40.8838 113.087 41.9237C112.601 42.0901 112.81 42.8662 113.301 42.6981C115.944 41.7932 118.683 43.3375 119.263 46.0685C119.37 46.5738 120.144 46.36 120.037 45.855Z" fill="#013D55"/>
<path d="M164.915 89.971C215.646 106.703 203.599 176.576 209.623 208.701H71.082L75.9008 152.482L79.5148 107.105L104.947 86.7588L164.915 89.971Z" fill="#4FAD97"/>
<path d="M104.948 86.7583L110.631 80.2857C113.08 77.4967 116.749 76.1342 120.435 76.5677C130.174 77.7133 139.803 78.0416 149.341 77.6824C152.928 77.5475 156.368 79.1131 158.588 81.9342L164.915 89.9708C143.06 99.9066 123.046 98.9818 104.948 86.7583Z" fill="#4FAD97"/>
<path d="M71.082 208.701C86.2582 199.83 97.7451 186.432 103.609 166.135L74.8969 163.123L71.082 208.701Z" fill="#148066"/>
<path d="M114.632 91.021C116.357 88.1792 118.081 85.3374 119.806 82.4956C120.074 82.0526 119.38 81.6485 119.112 82.0902C117.388 84.9319 115.663 87.7737 113.939 90.6155C113.67 91.0588 114.364 91.4629 114.632 91.021Z" fill="#013D55"/>
<path d="M127.077 91.6844C127.85 88.982 128.623 86.2794 129.397 83.5771C129.539 83.0793 128.765 82.8666 128.623 83.3636C127.849 86.0662 127.075 88.7685 126.302 91.4709C126.16 91.9686 126.934 92.181 127.077 91.6844Z" fill="#013D55"/>
<path d="M140.475 90.7655C139.857 88.2172 139.24 85.6686 138.622 83.1203C138.5 82.6184 137.725 82.8308 137.847 83.3338C138.465 85.8821 139.083 88.4307 139.701 90.979C139.822 91.481 140.597 91.2683 140.475 90.7655Z" fill="#013D55"/>
<path d="M153.286 89.1084C152.213 86.9422 151.139 84.7761 150.066 82.61C149.837 82.1467 149.144 82.5533 149.373 83.0154C150.446 85.1815 151.52 87.3477 152.593 89.5138C152.822 89.9771 153.515 89.5705 153.286 89.1084Z" fill="#013D55"/>
<path d="M182.885 133.033C184.669 142.542 184.482 152.255 184.313 161.886C184.139 171.753 183.965 181.62 183.792 191.487C183.695 197.025 183.597 202.564 183.5 208.102C183.491 208.619 184.294 208.619 184.303 208.102C184.477 198.189 184.651 188.275 184.826 178.362C184.999 168.553 185.392 158.717 185.177 148.907C185.059 143.516 184.655 138.125 183.66 132.819C183.565 132.312 182.791 132.527 182.885 133.033Z" fill="#013D55"/>
<path d="M183.534 132.804C183.366 127.709 182.608 122.651 181.272 117.731C181.137 117.233 180.362 117.445 180.498 117.945C181.816 122.798 182.565 127.778 182.73 132.804C182.748 133.32 183.551 133.322 183.534 132.804Z" fill="#013D55"/>
<path d="M183.959 132.572C185.471 130.928 186.509 128.938 186.971 126.751C187.077 126.247 186.303 126.031 186.196 126.537C185.763 128.591 184.812 130.458 183.391 132.004C183.041 132.384 183.608 132.953 183.959 132.572Z" fill="#013D55"/>
<path d="M104.813 135.75C108.152 133.063 111.533 130.556 115.254 129.458C115.254 129.458 123.821 112.459 126.632 113.128C129.443 113.797 125.561 127.852 125.026 128.521C125.026 128.521 137.876 125.443 139.75 127.316C141.624 129.19 139.884 132.938 139.884 132.938C139.884 132.938 145.238 131.466 143.23 139.765C143.23 139.765 145.372 145.253 143.096 147.127C142.561 153.82 128.506 156.765 111.774 157.166L104.813 135.75Z" fill="#FFBA9A"/>
<path d="M133.324 134.712C133.038 134.712 132.784 134.508 132.732 134.216C132.674 133.889 132.892 133.576 133.219 133.517L139.778 132.346C140.106 132.287 140.418 132.506 140.477 132.833C140.535 133.16 140.317 133.473 139.99 133.532L133.431 134.703C133.395 134.709 133.359 134.712 133.324 134.712Z" fill="#BF643A"/>
<path d="M134.629 141.439C134.329 141.439 134.07 141.215 134.032 140.91C133.991 140.581 134.225 140.279 134.555 140.238L143.156 139.167C143.484 139.126 143.787 139.361 143.828 139.691C143.869 140.021 143.635 140.322 143.304 140.363L134.704 141.434C134.679 141.437 134.654 141.439 134.629 141.439Z" fill="#BF643A"/>
<path d="M135.232 148.366C134.921 148.366 134.657 148.127 134.632 147.812C134.605 147.48 134.852 147.19 135.184 147.163L143.048 146.527C143.377 146.499 143.67 146.747 143.697 147.079C143.724 147.411 143.477 147.701 143.145 147.728L135.281 148.364C135.264 148.365 135.248 148.366 135.232 148.366Z" fill="#BF643A"/>
<path d="M104.948 86.7584C104.948 86.7584 66.6648 93.8528 56.6257 110.719C46.5865 127.584 30.2364 168.013 37.3504 181.796C43.7756 194.245 67.8696 205.489 103.609 166.135C103.609 166.135 116.861 163.726 116.861 158.505C116.861 153.285 112.042 129.994 106.42 130.396C100.799 130.797 93.9719 137.624 93.9719 137.624L79.1139 140.435L81.5233 121.963L104.948 86.7584Z" fill="#4FAD97"/>
<path d="M103.445 166.722C107.492 163.896 114.957 165.165 116.89 159.573C117.846 156.808 116.737 153.629 116.07 150.925C115.274 147.702 114.414 144.495 113.491 141.307C112.209 136.883 110.879 129.583 104.793 130.068C102.018 130.29 99.7286 131.908 97.7022 133.69C96.5552 134.699 95.4555 135.769 94.226 136.679C92.9319 137.638 91.2854 138.245 89.8483 138.97C83.1338 142.36 76.4974 145.903 69.9426 149.592C69.4922 149.845 69.8966 150.539 70.348 150.285C75.7976 147.218 81.3036 144.251 86.8645 141.391C88.2739 140.666 89.6867 139.948 91.1031 139.236C92.426 138.571 93.8253 138.003 95.0001 137.094C97.157 135.424 98.9783 133.264 101.399 131.952C103.762 130.671 106.832 130.244 108.902 132.296C110.674 134.052 111.287 136.727 111.982 139.035C112.899 142.083 113.759 145.148 114.558 148.229C114.947 149.726 115.322 151.226 115.682 152.729C116.015 154.116 116.379 155.519 116.429 156.95C116.688 164.36 107.363 163.009 103.04 166.029C102.619 166.323 103.02 167.019 103.445 166.722Z" fill="#013D55"/>
<path d="M99.2117 141.082C100.567 138.816 102.976 137.334 105.615 137.171C106.128 137.139 106.132 136.335 105.615 136.368C102.69 136.549 100.024 138.159 98.5181 140.677C98.2523 141.121 98.9463 141.526 99.2117 141.082Z" fill="#013D55"/>
<path d="M101.906 149.17C103.672 147.228 106.216 146.233 108.83 146.45C109.346 146.492 109.343 145.689 108.83 145.647C106.023 145.414 103.232 146.519 101.338 148.602C100.991 148.984 101.558 149.553 101.906 149.17Z" fill="#013D55"/>
<path d="M102.705 156.037C105.623 156.432 108.555 156.233 111.386 155.414C111.881 155.271 111.671 154.496 111.172 154.64C108.489 155.416 105.689 155.638 102.919 155.263C102.414 155.194 102.195 155.968 102.705 156.037Z" fill="#013D55"/>
<path d="M77.4931 146.297C79.098 140.205 80.7917 134.134 82.533 128.08C82.6761 127.582 81.9014 127.369 81.7586 127.866C80.0173 133.921 78.3233 139.991 76.7187 146.084C76.5868 146.584 77.3612 146.797 77.4931 146.297Z" fill="#013D55"/>
<path d="M144.218 437.533C144.218 446.157 150.837 453.148 159.001 453.148H410.481C418.646 453.148 425.265 446.157 425.265 437.533V314.095H144.218V437.533Z" fill="#2D2D2F"/>
<path d="M410.481 453.564H159.001C150.62 453.564 143.801 446.373 143.801 437.534V313.679H425.681V437.534C425.681 446.373 418.862 453.564 410.481 453.564ZM144.634 314.511V437.533C144.634 445.913 151.079 452.731 159.001 452.731H410.481C418.403 452.731 424.848 445.913 424.848 437.533V314.511H144.634Z" fill="white"/>
<path d="M410.48 276.539H159.001C150.836 276.539 144.217 283.53 144.217 292.154V314.095H425.264V292.154C425.264 283.53 418.645 276.539 410.48 276.539Z" fill="#262626"/>
<path d="M425.615 314.446H143.867V292.154C143.867 283.351 150.656 276.189 159.001 276.189H410.481C418.826 276.189 425.615 283.351 425.615 292.154L425.615 314.446ZM144.568 313.744H424.914V292.154C424.914 283.737 418.439 276.89 410.481 276.89H159.001C151.043 276.89 144.568 283.737 144.568 292.154V313.744Z" fill="white"/>
<path d="M165.241 302.505C161.261 302.505 158.022 299.28 158.022 295.317C158.022 291.354 161.261 288.129 165.241 288.129C169.222 288.129 172.461 291.354 172.461 295.317C172.461 299.28 169.222 302.505 165.241 302.505ZM165.241 289.181C161.841 289.181 159.074 291.934 159.074 295.317C159.074 298.7 161.841 301.453 165.241 301.453C168.642 301.453 171.409 298.7 171.409 295.317C171.409 291.934 168.642 289.181 165.241 289.181Z" fill="white"/>
<path d="M233.402 345.929L231.458 451.867L271.842 453.136H337.257L343.871 371.673C346.166 343.394 328.351 317.368 301.158 309.275L280.192 308.164L233.402 345.929Z" fill="#455A64"/>
<path d="M444.197 272.572L385.708 301.823L425.951 382.293L484.441 353.042L444.197 272.572Z" fill="white"/>
<path d="M425.767 382.813L385.146 301.601L444.379 271.974L485 353.185L425.767 382.813ZM386.264 301.974L426.14 381.695L483.882 352.813L444.006 273.092L386.264 301.974Z" fill="#36295B"/>
<path d="M420.058 299.315L398.078 310.307L405.53 325.209L427.51 314.216L420.058 299.315Z" fill="#455A64"/>
<path d="M444.809 289.23L425.996 298.637L426.368 299.382L445.182 289.975L444.809 289.23Z" fill="#36295B"/>
<path d="M447.421 294.428L428.607 303.834L428.98 304.58L447.793 295.173L447.421 294.428Z" fill="#36295B"/>
<path d="M450.03 299.643L431.216 309.05L431.588 309.795L450.402 300.388L450.03 299.643Z" fill="#36295B"/>
<path d="M454.409 309.33L409.331 331.869L409.703 332.615L454.781 310.076L454.409 309.33Z" fill="#36295B"/>
<path d="M457.296 315.105L412.218 337.644L412.591 338.389L457.669 315.85L457.296 315.105Z" fill="#36295B"/>
<path d="M460.185 320.879L415.107 343.418L415.48 344.163L460.558 321.624L460.185 320.879Z" fill="#36295B"/>
<path d="M435.927 353.439L436.582 342.989C434.795 342.875 432.956 343.208 431.239 344.067C426.063 346.656 423.966 352.951 426.555 358.127C429.144 363.303 435.439 365.4 440.615 362.811C445.683 360.277 447.787 354.192 445.443 349.08L435.927 353.439Z" fill="#092735"/>
<path d="M445.443 349.08C445.393 348.971 445.354 348.86 445.299 348.752C443.569 345.292 440.183 343.219 436.582 342.989L435.927 353.439L445.443 349.08Z" fill="#455A64"/>
<path d="M462.132 332.922L452.818 337.579L454.868 341.677L464.181 337.019L462.132 332.922Z" fill="#455A64"/>
<path d="M466.045 340.746L456.731 345.404L458.78 349.502L468.094 344.844L466.045 340.746Z" fill="#092735"/>
<path d="M213.409 420.35C232.355 381.476 254.415 344.052 279.776 308.164L250.751 316.249C231.885 321.505 216.153 334.594 207.646 352.234C194.074 380.379 178.223 419.854 180.225 433.54C182.381 448.27 193.536 452.769 218.476 452.393C219.696 442.296 222.796 434.01 228.203 427.946L213.409 420.35Z" fill="#455A64"/>
<path d="M248.12 431.179L233.958 430.901L228.203 427.946C222.796 434.01 219.695 442.295 218.476 452.392C222.451 452.332 226.763 452.153 231.459 451.867C244.407 454.036 257.962 454.138 271.842 453.136C273.186 453.039 273.712 451.343 272.654 450.509L248.12 431.179Z" fill="#FFBA9A"/>
<path d="M413.178 371.355C413.519 369.031 413.833 367.16 414.177 365.923C416.954 355.926 407.513 344.263 407.513 344.263C407.513 344.263 409.734 340.375 408.623 330.101C407.513 319.826 403.625 330.101 403.625 330.101L393.284 355.657C399.366 363.446 405.969 368.809 413.178 371.355Z" fill="#FFBA9A"/>
<path d="M393.284 355.657L379.466 389.804L371.83 376.058C352.253 336.904 342.673 317.327 301.158 309.274L329.76 366.2C329.76 366.2 352.808 427.569 381.687 427.291C406.99 427.048 410.763 387.798 413.177 371.355C405.97 368.809 399.366 363.446 393.284 355.657Z" fill="#455A64"/>
<path d="M273.062 331.566C277.028 334.961 281.981 337.076 287.176 337.599C292.28 338.113 297.464 336.967 301.932 334.461C304.432 333.059 306.685 331.233 308.575 329.08C308.928 328.678 308.341 328.087 307.986 328.491C304.756 332.171 300.463 334.833 295.729 336.09C290.907 337.37 285.782 337.073 281.106 335.352C278.385 334.35 275.853 332.862 273.651 330.977C273.246 330.63 272.654 331.217 273.062 331.566Z" fill="#013D55"/>
<path d="M342.673 374.809C342.661 381.021 341.852 387.201 341.84 393.414C341.839 393.95 342.672 393.95 342.673 393.414C342.685 387.201 343.494 381.021 343.506 374.809C343.507 374.273 342.674 374.272 342.673 374.809Z" fill="#013D55"/>
<path d="M233.541 364.396C233.532 371.958 232.757 379.496 232.153 387.027C232.11 387.562 232.943 387.559 232.986 387.027C233.59 379.496 234.365 371.958 234.374 364.396C234.375 363.86 233.542 363.858 233.541 364.396Z" fill="#013D55"/>
<path d="M233.75 381.473C233.767 378.85 234.291 375.682 236.069 373.632C237.817 371.615 241.047 371.979 242.924 373.639C243.989 374.581 244.332 375.83 244.923 377.068C245.413 378.095 246.222 379.013 247.431 379.093C250.15 379.271 251.274 375.961 252.053 373.969C252.489 372.854 253.093 371.465 254.266 370.954C255.684 370.337 256.958 371.351 257.735 372.466C259.122 374.456 259.401 377.374 261.641 378.713C264.066 380.163 266.391 378.157 267.845 376.323C268.769 375.156 269.584 373.921 270.866 373.104C272.116 372.307 273.736 372.149 274.639 373.529C275.895 375.447 275.253 378.09 276.886 379.866C278.552 381.679 281.472 381.28 283.41 380.17C286.04 378.664 287.53 375.71 290.248 374.34C291.428 373.745 292.915 373.41 294.2 373.856C295.712 374.381 296.272 375.849 296.512 377.307C296.875 379.511 296.882 382.76 299.45 383.67C300.651 384.096 301.885 383.605 302.785 382.784C303.925 381.744 304.402 380.264 305.095 378.931C306.571 376.096 309.991 374.687 312.907 376.303C314.2 377.02 315.135 378.173 315.603 379.57C316.011 380.788 316.192 382.127 316.885 383.232C318.34 385.55 321.311 385.156 323.185 383.59C325.528 381.632 326.214 378.094 329.077 376.691C330.551 375.968 332.065 376.341 333.177 377.506C334.218 378.596 334.732 380.027 335.234 381.417C336.097 383.802 337.269 386.434 340.1 386.797C341.187 386.936 342.276 386.633 342.987 385.768C343.325 385.358 342.739 384.765 342.398 385.179C341.509 386.259 339.999 386.15 338.86 385.531C337.478 384.78 336.8 383.241 336.272 381.836C335.386 379.479 334.483 376.494 331.794 375.637C328.846 374.698 326.541 377.431 325.157 379.624C324.327 380.94 323.522 382.423 322.188 383.3C320.995 384.084 319.291 384.478 318.121 383.434C317.119 382.541 316.915 381.04 316.553 379.819C316.174 378.539 315.576 377.383 314.573 376.479C312.55 374.654 309.631 374.274 307.217 375.549C305.956 376.216 305.03 377.256 304.376 378.511C303.646 379.912 303.16 381.59 301.786 382.521C300.342 383.5 298.906 382.771 298.193 381.336C297.566 380.077 297.552 378.665 297.348 377.302C297.154 375.997 296.759 374.66 295.716 373.775C294.822 373.018 293.624 372.747 292.473 372.847C289.449 373.111 287.506 375.345 285.502 377.366C283.723 379.161 280.696 381.414 278.079 379.781C275.97 378.465 276.546 375.348 275.513 373.378C275 372.4 274.044 371.699 272.924 371.631C271.626 371.553 270.423 372.293 269.482 373.116C268.395 374.066 267.664 375.305 266.718 376.38C265.809 377.414 264.584 378.541 263.097 378.352C260.318 378 259.826 374.137 258.566 372.213C257.936 371.25 257.065 370.31 255.908 370.025C254.829 369.759 253.728 370.116 252.936 370.873C250.962 372.763 251.163 375.985 248.973 377.708C248.437 378.129 247.772 378.401 247.094 378.185C246.363 377.953 245.955 377.303 245.642 376.647C245.092 375.497 244.753 374.322 243.851 373.375C242.181 371.62 239.343 370.873 237.079 371.84C234.94 372.754 233.924 375.347 233.408 377.443C233.084 378.76 232.925 380.118 232.917 381.473C232.913 382.009 233.746 382.01 233.75 381.473Z" fill="#013D55"/>
<path d="M307.8 277.982V311.846C307.8 320.718 300.603 327.907 291.731 327.907H290.597C281.725 327.907 274.536 320.718 274.536 311.846V277.982H307.8Z" fill="#FFBA9A"/>
<path d="M301.019 291.294C296.329 302.107 288.348 309.23 274.57 309.83L274.536 309.821V294.485L301.019 291.294Z" fill="#FFBA9A"/>
<path d="M327.677 267.135C326.088 283.295 306.226 291.086 291.231 289.42C273.854 287.489 261.95 270.444 262.698 254.223C263.531 236.163 286.62 226.732 303.31 231.938C326.011 239.019 328.927 254.431 327.677 267.135Z" fill="#263238"/>
<path d="M311.374 277.099C307.701 293.96 285.616 304.215 273.762 301.016C265.922 298.892 262.248 292.852 262.99 282.947C263.265 279.315 264.131 275.166 265.614 270.493C265.689 270.243 265.772 269.993 265.856 269.734C268.28 262.304 265.681 239.852 288.199 242.202C300.419 243.476 315.048 260.237 311.374 277.099Z" fill="#FFBA9A"/>
<path d="M288.043 271.909C288.465 270.747 287.864 269.463 286.701 269.042C285.539 268.62 284.255 269.221 283.834 270.383C283.412 271.546 284.013 272.83 285.176 273.251C286.338 273.672 287.622 273.072 288.043 271.909Z" fill="#013D55"/>
<path d="M272.133 267.343C271.174 267.958 270.896 269.234 271.512 270.193C272.127 271.151 273.403 271.43 274.362 270.814C275.32 270.199 275.598 268.923 274.983 267.965C274.368 267.006 273.092 266.728 272.133 267.343Z" fill="#013D55"/>
<path d="M279.469 270.377C279.345 270.776 279.135 271.044 278.932 271.321C278.727 271.594 278.504 271.843 278.285 272.093C277.839 272.584 277.387 273.057 276.934 273.521C276.042 274.458 275.134 275.378 274.441 276.379C274.106 276.876 273.803 277.399 273.721 277.89C273.618 278.38 273.745 278.778 274.108 279.161C274.286 279.349 274.517 279.518 274.769 279.669C275.018 279.825 275.295 279.959 275.581 280.079C276.151 280.33 276.763 280.524 277.382 280.723C277.511 280.764 277.583 280.903 277.542 281.033C277.508 281.141 277.405 281.209 277.296 281.204C276.629 281.176 275.964 281.076 275.297 280.906C274.637 280.726 273.959 280.473 273.357 279.961C273.06 279.706 272.786 279.364 272.638 278.951C272.483 278.541 272.454 278.092 272.518 277.693C272.581 277.29 272.714 276.928 272.873 276.596C273.032 276.263 273.215 275.956 273.419 275.671C274.232 274.531 275.208 273.616 276.199 272.748C276.693 272.313 277.202 271.901 277.695 271.484C277.945 271.279 278.187 271.068 278.421 270.857C278.646 270.647 278.886 270.421 279.01 270.211L279.027 270.182C279.096 270.066 279.245 270.027 279.361 270.096C279.459 270.154 279.502 270.272 279.469 270.377Z" fill="#013D55"/>
<path d="M285.143 262.55C284.723 263.593 287.46 265.001 289.496 265.955C291.531 266.909 293.443 267.125 293.766 266.437C294.089 265.749 292.7 264.418 290.664 263.463C288.628 262.509 285.427 261.845 285.143 262.55Z" fill="#013D55"/>
<path d="M278.795 261.846C278.905 262.963 276.607 263.346 274.917 263.544C273.226 263.743 271.769 263.294 271.663 262.543C271.557 261.791 272.842 261.02 274.532 260.822C276.223 260.623 278.721 261.092 278.795 261.846Z" fill="#013D55"/>
<path opacity="0.4" d="M295.55 287.558C298.587 285.746 299.58 281.814 297.768 278.777C295.955 275.74 292.024 274.747 288.987 276.559C285.95 278.372 284.957 282.303 286.769 285.34C288.582 288.377 292.513 289.37 295.55 287.558Z" fill="#FF9498"/>
<path opacity="0.4" d="M269.846 277.923C269.155 281.122 266.173 283.238 262.99 282.947C263.265 279.315 264.132 275.166 265.614 270.492C268.688 271.509 270.555 274.699 269.846 277.923Z" fill="#FF9498"/>
<path d="M283.541 284.055C282.911 284.764 282.193 285.404 281.374 285.939C280.56 286.478 279.63 286.881 278.663 287.11C277.697 287.343 276.703 287.387 275.741 287.313C274.778 287.237 273.838 287.046 272.935 286.745C272.805 286.702 272.735 286.562 272.778 286.432C272.812 286.331 272.905 286.266 273.006 286.263H273.011C273.948 286.237 274.862 286.251 275.761 286.216C276.659 286.182 277.537 286.082 278.385 285.898C279.235 285.71 280.046 285.402 280.844 285.014C281.642 284.624 282.42 284.143 283.232 283.677C283.35 283.608 283.502 283.649 283.57 283.767C283.624 283.861 283.609 283.978 283.541 284.055Z" fill="#013D55"/>
<path d="M312.821 278.729C302.725 270.986 294.697 261.992 289.357 251.376C277.307 249.757 270.461 254.702 265.753 262.345L268.738 243.393L290.398 236.728L316.848 255.472L312.821 278.729Z" fill="#263238"/>
<path d="M335.169 264.101C345.35 264.101 353.604 255.847 353.604 245.665C353.604 235.484 345.35 227.23 335.169 227.23C324.987 227.23 316.733 235.484 316.733 245.665C316.733 255.847 324.987 264.101 335.169 264.101Z" fill="#263238"/>
<path d="M312.463 289.252C316.644 287.333 318.631 282.722 316.901 278.954C315.171 275.186 310.38 273.687 306.198 275.607C302.017 277.526 300.03 282.137 301.76 285.905C303.489 289.673 308.281 291.172 312.463 289.252Z" fill="#FFBA9A"/>
<path d="M308.211 284.005C308.871 281.326 311.886 279.657 314.507 280.51C314.938 280.65 315.122 279.972 314.694 279.833C311.719 278.866 308.283 280.783 307.535 283.818C307.427 284.257 308.103 284.443 308.211 284.005Z" fill="#013D55"/>
</svg>
